<svg fill="#646464" t="1678324062874" class="icon" viewBox="0 0 1024 1024" version="1.1" xmlns="http://www.w3.org/2000/svg" p-id="4976" width="200" height="200"><path d="M763.37440099 480.57820044h-219.95260143V260.62559901c0-18.85308003-12.56871953-31.42179956-31.42179956-31.42179958s-31.42179956 12.56871953-31.42179956 31.42179958v219.95260143H260.62559901c-18.85308003 0-31.42179956 12.56871953-31.42179958 31.42179956s12.56871953 31.42179956 31.42179958 31.42179956h219.95260143V763.37440099c0 18.85308003 12.56871953 31.42179956 31.42179956 31.42179958s31.42179956-12.56871953 31.42179956-31.42179958v-219.95260143H763.37440099c18.85308003 0 31.42179956-12.56871953 31.42179958-31.42179956s-12.56871953-31.42179956-31.42179958-31.42179956z" p-id="4977"></path><path d="M512 9.2511995c-276.51184005 0-502.7488005 226.23696045-502.7488005 502.7488005s226.23696045 502.7488005 502.7488005 502.7488005 502.7488005-226.23696045 502.7488005-502.7488005-226.23696045-502.7488005-502.7488005-502.7488005z m0 942.65400185c-245.09004048 0-439.90520135-194.81516087-439.90520135-439.90520135s194.81516087-439.90520135 439.90520135-439.90520135 439.90520135 194.81516087 439.90520135 439.90520135-194.81516087 439.90520135-439.90520135 439.90520135z" p-id="4978"></path></svg>