<svg fill="#fff" t="1677581979378" class="icon" viewBox="0 0 1024 1024" version="1.1" xmlns="http://www.w3.org/2000/svg" p-id="4906" width="200" height="200"><path d="M626.97927111 8.34370333a42.47703666 42.47703666 0 0 1 3.47098112 84.80843889l-3.47098112 0.14563556H289.08051001a147.23754667 147.23754667 0 0 0-147.14045668 141.70339555l-0.09708999 5.53415112v542.9293511a147.23754667 147.23754667 0 0 0 141.70339556 147.14045668l5.53415111 0.09708999h445.83897998a147.23754667 147.23754667 0 0 0 147.14045668-141.70339555l0.09708999-5.53415112V420.03114667a42.47703666 42.47703666 0 0 1 84.80843889-3.49525334l0.14563556 3.49525334v363.43352888c0 126.02330112-100.39144334 228.59927666-225.56520334 232.09453l-6.62641778 0.09709112H289.08051001c-126.02330112 0-228.59927666-100.39144334-232.09453113-225.56520334l-0.09708999-6.62641778V240.53532445c0-126.02330112 100.39144334-228.59927666 225.56520334-232.09453l6.62641778-0.09709112h337.87448889z" p-id="4907"></path><path d="M893.63797333 70.31163221a42.47703666 42.47703666 0 0 1 64.63791446 54.97742222l-2.66998557 3.13116445-364.08888889 388.36148224a42.47703666 42.47703666 0 0 1-64.6136411-54.97742222l2.66998443-3.13116445 364.08888889-388.36148224zM609.09036999 736.5214811a42.47703666 42.47703666 0 0 1 3.49525334 84.8084389L609.09036999 821.47555555H317.81925888a42.47703666 42.47703666 0 0 1-3.49525333-84.80843889L317.81925888 736.5214811h291.27111111zM414.90963001 566.61333333a42.47703666 42.47703666 0 0 1 3.49525333 84.8084389L414.90963001 651.56740779h-97.09037113a42.47703666 42.47703666 0 0 1-3.49525333-84.8084389L317.81925888 566.61333333h97.09037113z" p-id="4908"></path></svg>