<svg fill="#EEEEEE" t="1678066595741" class="icon" viewBox="0 0 1024 1024" version="1.1" xmlns="http://www.w3.org/2000/svg" p-id="5552" width="200" height="200"><path d="M512 9.2511995c-276.51184005 0-502.7488005 226.23696045-502.7488005 502.7488005 0 69.12795966 12.56871953 138.25592077 43.9905191 201.0995199L9.2511995 933.05212131c0 6.2843605 0 18.85308003 6.28435903 25.13743907 6.2843605 6.2843605 12.56871953 12.56871953 25.13744054 12.56872102h263.94312052c69.12795966 31.42179956 138.25592077 43.99052059 207.38388041 43.9905191 276.51184005 0 502.7488005-226.23696045 502.7488005-502.7488005s-226.23696045-502.7488005-502.7488005-502.7488005z m0 942.65400185c-62.84360061 0-125.68719975-12.56871953-188.53080036-43.99052056H78.37915914l37.70616007-188.53080038V700.53080036c-31.42179956-62.84360061-43.99052059-125.68719975-43.99052056-188.53080036 0-245.09004048 194.81516087-439.90520135 439.90520135-439.90520135s439.90520135 194.81516087 439.90520135 439.90520135-194.81516087 439.90520135-439.90520135 439.90520135z" p-id="5553"></path><path d="M512 512m-62.84360061 0a62.84360061 62.84360061 0 1 0 125.68720122 0 62.84360061 62.84360061 0 1 0-125.68720122 0Z" p-id="5554"></path><path d="M323.46919964 512m-62.84360063 0a62.84360061 62.84360061 0 1 0 125.68720124 0 62.84360061 62.84360061 0 1 0-125.68720124 0Z" p-id="5555"></path><path d="M700.53080036 512m-62.84360061 0a62.84360061 62.84360061 0 1 0 125.68720124 0 62.84360061 62.84360061 0 1 0-125.68720124 0Z" p-id="5556"></path></svg>