<svg fill="#fff" t="1677680621221" class="icon" viewBox="0 0 1024 1024" version="1.1" xmlns="http://www.w3.org/2000/svg" p-id="4916" width="200" height="200"><path d="M644.30990222 512l363.7248 363.7248c18.27726222 18.27726222 18.27726222 47.84128 0 66.11854222l-66.11854222 66.11854223c-18.27726222 18.27726222-47.84128 18.27726222-66.11854222 0L512 644.30990222l-363.7248 363.7248c-18.27726222 18.27726222-47.84128 18.27726222-66.11854222 0l-66.11854223-66.11854222c-18.27726222-18.27726222-18.27726222-47.91409778 0-66.11854222L379.69009778 512 15.96529778 148.2752c-18.27726222-18.27726222-18.27726222-47.84128 0-66.11854222l66.11854222-66.11854223c18.27726222-18.27726222 47.91409778-18.27726222 66.11854222 0L512 379.69009778l363.7248-363.7248c18.27726222-18.27726222 47.91409778-18.27726222 66.11854222 0l66.11854223 66.11854222c18.27726222 18.27726222 18.27726222 47.91409778 0 66.11854222L644.30990222 512z" p-id="4917"></path></svg>