<svg fill="#4943d8" t="1678970943881" class="icon" viewBox="0 0 1024 1024" version="1.1" xmlns="http://www.w3.org/2000/svg" p-id="5186" width="200" height="200"><path d="M194.89519923 929.80941295H40.29355903a34.40798299 34.40798299 0 0 1-34.38265506-34.36999112V101.80162783a34.42064695 34.42064695 0 0 1 34.38265506-34.38265508h154.6016402a34.42064695 34.42064695 0 0 1 34.38265508 34.38265508v793.637794a34.40798299 34.40798299 0 0 1-34.38265508 34.36999112z m-154.6016402-842.15342996a14.13298087 14.13298087 0 0 0-14.1203169 14.12031692v793.66312192a14.13298087 14.13298087 0 0 0 14.1203169 14.10765295h154.6016402a14.13298087 14.13298087 0 0 0 14.12031692-14.10765295V101.80162783a14.13298087 14.13298087 0 0 0-14.12031692-14.12031691z" fill="" p-id="5187"></path><path d="M180.7495544 421.31337275h-122.71378551V217.85416966h122.71378551z m-102.45144735-20.26233816h82.18910918V238.11650783h-82.18910918zM463.09257275 929.80941295H308.4782686A34.40798299 34.40798299 0 0 1 274.09561353 895.43942183V101.80162783a34.42064695 34.42064695 0 0 1 34.38265507-34.38265508h154.61430415a34.42064695 34.42064695 0 0 1 34.36999111 34.38265508v793.637794a34.40798299 34.40798299 0 0 1-34.36999111 34.36999112z m-154.61430415-842.15342996A14.13298087 14.13298087 0 0 0 294.35795169 101.80162783v793.637794a14.13298087 14.13298087 0 0 0 14.12031691 14.10765295h154.61430415a14.13298087 14.13298087 0 0 0 14.10765295-14.10765295V101.80162783a14.13298087 14.13298087 0 0 0-14.10765295-14.12031691z" fill="" p-id="5188"></path><path d="M448.93426397 421.31337275h-122.71378551V217.85416966h122.71378551z m-102.45144736-20.26233816h82.18910919V238.11650783h-82.18910919zM846.50666667 929.83474087a34.59794241 34.59794241 0 0 1-12.66396136-2.4568085 34.19269565 34.19269565 0 0 1-18.91995826-18.27409623l-315.58591691-728.17777779a34.42064695 34.42064695 0 0 1 17.90684136-45.21034202l141.83636715-61.48353237a34.45863884 34.45863884 0 0 1 45.21034202 17.88151343l315.59858087 728.17777777a34.43331092 34.43331092 0 0 1-17.86884946 45.223006l-141.83636715 61.4708684a34.05339209 34.05339209 0 0 1-13.67707826 2.84939131zM672.70646106 91.67045874a13.93035748 13.93035748 0 0 0-5.55947904 1.15242048l-141.83636715 61.48353237a14.12031691 14.12031691 0 0 0-7.33243361 18.56536735l315.5859169 728.17777778a14.19630068 14.19630068 0 0 0 18.55270338 7.33243362l141.83636716-61.47086841a14.15830878 14.15830878 0 0 0 7.34509758-18.57803131L685.67435748 100.16797682a14.2849484 14.2849484 0 0 0-13.00588829-8.49751808z" fill="" p-id="5189"></path><path d="M674.27679227 453.36585894l-80.94804096-186.6794543L705.93669565 217.89216155l80.91004909 186.6794543z m-54.29040232-176.14303845l64.78882628 149.49806377 75.41388986-32.68568426-64.80149024-149.43474397z" fill="" p-id="5190"></path></svg>