<svg fill="#fff" t="1677682035095" class="icon" viewBox="0 0 1024 1024" version="1.1" xmlns="http://www.w3.org/2000/svg" p-id="6004" width="200" height="200"><path d="M512 26.54814777c147.456 0 266.9985189 119.5425189 266.9985189 266.9985189 0 95.86460445-50.51126557 179.92059221-126.37525333 227.00942222a483.87413333 483.87413333 0 0 1 173.91312554 94.9665189 36.40888889 36.40888889 0 1 1-47.21019221 55.45073778A410.78935666 410.78935666 0 0 0 512 572.6814811c-214.66680889 0-393.02181888 164.60458667-411.12917333 377.07472669a36.40888889 36.40888889 0 0 1-72.55077888-6.17737558c17.19713223-201.75379001 157.06794667-366.75887445 343.09309554-423.01060664C295.54915555 473.50366777 245.0014811 389.42340779 245.0014811 293.54666667c0-147.456 119.5425189-266.9985189 266.9985189-266.9985189z m473.25487445 713.82054002l1.21362888 1.15294776a33.93308445 33.93308445 0 0 1 0 49.39472555l-184.61733888 174.03448889a36.32393443 36.32393443 0 0 1-25.89885668 9.90321778 36.32393443 36.32393443 0 0 1-25.91099222-9.90321778l-106.02268444-99.9424a33.93308445 33.93308445 0 0 1 0-49.39472554l1.22576555-1.15294778a36.40888889 36.40888889 0 0 1 49.95299555 0l80.75491556 76.11885 159.34957113-150.21093888a36.40888889 36.40888889 0 0 1 49.95299555 0zM512 99.36592555c-107.24844999 0-194.18074112 86.93228999-194.18074112 194.18074112s86.93228999 194.18074112 194.18074112 194.18074112 194.18074112-86.93228999 194.18074112-194.18074112-86.93228999-194.18074112-194.18074112-194.18074112z" p-id="6005"></path></svg>