<svg t="1677554746272" class="icon" viewBox="0 0 1024 1024" version="1.1" xmlns="http://www.w3.org/2000/svg" p-id="4761" width="200" height="200" fill="#fff"><path d="M511.99772445 2.27555555C230.48419555 2.27555555 2.27555555 230.48419555 2.27555555 511.99772445S230.48419555 1021.72444445 511.99772445 1021.72444445 1021.72444445 793.51125333 1021.72444445 511.99772445 793.51125333 2.27555555 511.99772445 2.27555555z m402.60380444 679.75168c-93.5424 221.46616889-348.90752 325.17006222-570.37482667 231.62766223S19.05664 564.74737778 112.59904 343.28007111 461.50656 18.11000889 682.97386667 111.65240889c191.15690667 80.74012445 298.74631111 285.18627555 257.05358222 488.46279111a436.90097778 436.90097778 0 0 1-25.42592 81.91203555z" p-id="4762"></path><path d="M547.62496 496.79815111V220.86656c0-20.08974222-16.28615111-36.37475555-36.37475555-36.37475555s-36.37475555 16.28615111-36.37475556 36.37475555v306.06791111l229.24060444 229.24060444c14.20515555 14.20515555 37.23719111 14.20515555 51.44234667 0s14.20515555-37.23719111 0-51.44234666L547.62496 496.79815111z" p-id="4763"></path></svg>
