<svg fill="#3971FA" t="1678064305354" class="icon" viewBox="0 0 1024 1024" version="1.1" xmlns="http://www.w3.org/2000/svg" p-id="5120" width="200" height="200"><path d="M971.04672364 14.8973037h-319.58180095a7.62224133 7.62224133 0 0 0-7.56700728 7.62224135v70.97521874c0 4.19775653 3.42448481 7.62224133 7.56700728 7.62224134h203.42547092l-252.74910468 252.74910338a362.2221647 362.2221647 0 0 0-222.03920434-75.17297397 362.5535665 362.5535665 0 0 0-258.16200029 106.98754654A363.32683693 363.32683693 0 0 0 14.8973037 643.89791541c0 97.48736254 38.05597265 189.34089322 107.0427806 258.16200029A362.5535665 362.5535665 0 0 0 380.10208459 1009.1026963a362.5535665 362.5535665 0 0 0 258.21723433-107.0427806 362.5535665 362.5535665 0 0 0 106.98754654-258.16200029 362.16693063 362.16693063 0 0 0-75.06250715-221.81826937L922.93822894 169.55147632v202.98360099c0 4.19775653 3.42448481 7.62224133 7.56700727 7.62224134h71.0304528A7.62224133 7.62224133 0 0 0 1009.1026963 372.47984323V53.00851042A38.11120672 38.11120672 0 0 0 971.04672364 14.8973037zM380.10208459 912.72000729a269.15349366 269.15349366 0 0 1-268.82209188-268.82209188A269.15349366 269.15349366 0 0 1 380.10208459 375.02059078a269.15349366 269.15349366 0 0 1 268.87732463 268.87732463 269.15349366 269.15349366 0 0 1-268.87732463 268.82209188z" p-id="5121"></path></svg>