<svg fill="#fff" t="1677647762534" class="icon" viewBox="0 0 1024 1024" version="1.1" xmlns="http://www.w3.org/2000/svg" p-id="5060" width="200" height="200"><path d="M52.41173151 250.52632042l918.96777691 0c24.0075638 0 43.63113692-19.62357313 43.63113691-43.63113692 0-24.0075638-19.41481184-43.63113692-43.63113691-43.63113693L52.41173151 163.26404537c-24.0075638 0-43.63113692 19.62357313-43.63113692 43.63113691C8.78059459 230.90274608 28.40416771 250.52632042 52.41173151 250.52632042z" p-id="5061"></path><path d="M971.3795072 468.47324372L52.41173151 468.47324372c-24.0075638 0-43.63113692 19.62357313-43.63113692 43.63113692 0 24.0075638 19.62357313 43.63113692 43.63113692 43.63113692l918.96777691 0c24.0075638 0 43.63113692-19.62357313 43.63113691-43.63113692C1015.01064412 488.09681684 995.387071 468.47324372 971.3795072 468.47324372z" p-id="5062"></path><path d="M971.3795072 773.47367958L52.41173151 773.47367958c-24.0075638 0-43.63113692 19.41481184-43.63113692 43.63113692s19.62357313 43.63113692 43.63113692 43.63113693l918.96777691 0c24.0075638 0 43.63113692-19.41481184 43.63113691-43.63113693S995.387071 773.47367958 971.3795072 773.47367958z" p-id="5063"></path></svg>