<svg fill="#fff" t="1677554846449" class="icon" viewBox="0 0 1024 1024" version="1.1" xmlns="http://www.w3.org/2000/svg" p-id="4906" width="200" height="200"><path d="M948.90666667 75.09333333H75.09333333a72.81777778 72.81777778 0 0 0-72.81777778 72.81777778v764.58666667a72.81777778 72.81777778 0 0 0 72.81777778 72.81777777h873.81333334a72.81777778 72.81777778 0 0 0 72.81777778-72.81777777V147.91111111a72.81777778 72.81777778 0 0 0-72.81777778-72.81777778z m0 72.81777778v133.87548444l-429.44284445 290.47011556L75.09333333 271.66492445V147.91111111h873.81333334zM75.09333333 912.49777778V359.59239111l423.98151112 286.75640889a36.37248 36.37248 0 0 0 40.77795555 0L948.90666667 369.67765333V912.49777778H75.09333333z" p-id="4907"></path></svg>
