<svg fill="#fff" t="1677647627953" class="icon" viewBox="0 0 1024 1024" version="1.1" xmlns="http://www.w3.org/2000/svg" p-id="4916" width="200" height="200"><path d="M593.404949 447.98429h408.498606A17.914802 17.914802 0 0 1 1019.852632 465.910517v92.178966a17.926227 17.926227 0 0 1-17.926227 17.937652H593.404949a17.926227 17.926227 0 0 0-17.937652 17.926227v412.120411a17.914802 17.914802 0 0 1-17.926226 17.926227h-91.093567a17.926227 17.926227 0 0 1-17.937652-17.926227V593.953362a17.926227 17.926227 0 0 0-17.926227-17.926227H22.073595A17.937652 17.937652 0 0 1 4.147368 558.089483v-92.178966a17.926227 17.926227 0 0 1 17.926227-17.926227h408.51003a17.937652 17.937652 0 0 0 17.926227-17.937652V17.926227A17.937652 17.937652 0 0 1 466.447504 0h91.093567a17.926227 17.926227 0 0 1 17.926226 17.926227V430.046638a17.937652 17.937652 0 0 0 17.937652 17.937652z" p-id="4917"></path></svg>
