<svg fill="#fff" t="1678061391685" class="icon" viewBox="0 0 1024 1024" version="1.1" xmlns="http://www.w3.org/2000/svg" p-id="4976" width="200" height="200"><path d="M949.67922898 74.48569649l-875.63267353 0c-34.54178799 0-62.54613699 28.004349-62.54613701 62.54481268l0 750.53907524c0 34.54178799 28.00567331 62.54746131 62.54613701 62.54746131l875.63267353 0c34.53781375 0 62.54348837-28.00567331 62.54348836-62.54746131L1012.22271734 137.03050917C1012.22271734 102.49004549 984.21836835 74.48569649 949.67922898 74.48569649zM128.77293563 887.57090871c-30.20601555 0-54.72638018-24.00240304-54.72638018-53.61097493l0-131.29853644 208.31049652-208.28532681 393.16966848 393.19483818L128.77293563 887.57090871zM949.67922898 833.95993378c0 29.6085719-24.52566318 53.61097493-54.72638018 53.61097493l-130.95543718 0L606.19807283 729.77289295l343.48115745-343.49175454L949.67922898 833.95993378zM561.97663511 685.5368839l-235.40079534-235.39814673 0.36959326-0.38284026-44.22276203-44.22143772-0.36694464 0.38151597-0.15366687-0.13776995-44.22276203 44.22143772 0.12319732 0.13776994L74.04655545 614.20527619 74.04655545 190.64413404c0-29.6085719 24.52168894-53.61229925 54.72638018-53.61229927L894.9528501 137.03183348c30.20204132 0 54.72638018 24.00505295 54.72638018 53.61229926l0 107.17823461L561.97663511 685.5368839z" p-id="4977"></path></svg>