<svg fill="#fff" t="1678007890020" class="icon" viewBox="0 0 1024 1024" version="1.1" xmlns="http://www.w3.org/2000/svg" p-id="4976" width="200" height="200"><path d="M465.454545 868.848485C226.521212 868.848485 31.030303 673.357576 31.030303 434.424242S226.521212 0 465.454545 0s434.424242 195.490909 434.424243 434.424242-195.490909 434.424242-434.424243 434.424243z m0-806.787879C260.654545 62.060606 93.090909 229.624242 93.090909 434.424242s167.563636 372.363636 372.363636 372.363637 372.363636-167.563636 372.363637-372.363637S670.254545 62.060606 465.454545 62.060606z" p-id="4977"></path><path d="M766.448485 806.787879c6.206061-6.206061 15.515152-6.206061 21.721212 0l183.078788 167.563636c6.206061 6.206061 6.206061 15.515152 0 21.721212-6.206061 6.206061-15.515152 6.206061-21.721212 0l-183.078788-167.563636c-6.206061-6.206061-6.206061-15.515152 0-21.721212z" p-id="4978"></path><path d="M961.939394 1014.690909c-6.206061 0-15.515152-3.10303-21.721212-9.309091L757.139394 837.818182c-6.206061-6.206061-9.309091-12.412121-9.309091-21.721212 0-9.309091 3.10303-15.515152 9.309091-21.721212 6.206061-6.206061 12.412121-9.309091 21.721212-9.309091 9.309091 0 15.515152 3.10303 21.721212 9.309091l183.078788 167.563636c6.206061 6.206061 9.309091 12.412121 9.309091 21.721212 0 9.309091-3.10303 15.515152-9.309091 21.721212-6.206061 3.10303-12.412121 9.309091-21.721212 9.309091z m-186.181818-198.593939l183.078788 167.563636-192.387879-176.872727 9.309091 9.309091z" p-id="4979"></path></svg>