<svg fill="#4943d8" t="1679106025781" class="icon" viewBox="0 0 1024 1024" version="1.1" xmlns="http://www.w3.org/2000/svg" p-id="5186" width="200" height="200"><path d="M745.01688889 201.31081482A77.6722963 77.6722963 0 0 1 822.68918518 278.98311111v673.15990164a77.6722963 77.6722963 0 0 1-77.67229629 77.6722963h-673.15990164A77.6722963 77.6722963 0 0 1-5.81530905 952.14301275v-673.15990164A77.6722963 77.6722963 0 0 1 71.85698725 201.31081482zM719.12612386 304.87387614H97.74775349v621.37837037h621.37837037V304.87387614z m-92.63715911 141.10467201a51.78153127 51.78153127 0 0 1 10.61521423 67.67846044l-3.83183409 5.28171614-236.79693984 285.05732741a51.78153127 51.78153127 0 0 1-74.87609364 5.07459084l-4.34964858-4.60855706-131.36974461-154.15361658a51.78153127 51.78153127 0 0 1 74.35827912-71.82098371l4.50499319 4.66033778 91.39440116 107.29133154 197.4429772-237.67722666a51.78153127 51.78153127 0 0 1 72.90839586-6.73159821zM951.93588622-5.81530905a77.6722963 77.6722963 0 0 1 77.36160711 70.21575586l0.31068919 7.45654044v646.9066655a51.78153127 51.78153127 0 0 1-103.20059142 6.0584391l-0.36246991-6.0584391V97.74775349H304.87387614a51.78153127 51.78153127 0 0 1-51.41906015-45.72309216L253.09234608 45.96622222a51.78153127 51.78153127 0 0 1 45.72309094-51.41906014L304.87387614-5.81530905h647.06201008z" p-id="5187"></path></svg>