<svg fill="#4943d8" t="1679106082163" class="icon" viewBox="0 0 1024 1024" version="1.1" xmlns="http://www.w3.org/2000/svg" p-id="5330" width="200" height="200"><path d="M832 738.56V320a128 128 0 0 0-128-128H128a128 128 0 0 0-128 128v576a128 128 0 0 0 128 128h576a128 128 0 0 0 128-128v-157.44z m-92.8 128a64 64 0 0 1-64 64H156.16a64 64 0 0 1-64-64V349.44a64 64 0 0 1 64-64h517.76a64 64 0 0 1 64 64v390.4z" p-id="5331"></path><path d="M1024 704a128 128 0 0 1-128 128h-64v-93.44h36.48a64 64 0 0 0 64-64V156.8a64 64 0 0 0-64-64H349.44a64 64 0 0 0-64 64V192H192V128a128 128 0 0 1 128-128h576a128 128 0 0 1 128 128z" p-id="5332"></path><path d="M225.030844 732.388867m33.941125-33.941126l203.646753-203.646753q33.941125-33.941125 67.882251 0l0 0q33.941125 33.941125 0 67.882251l-203.646753 203.646753q-33.941125 33.941125-67.882251 0l0 0q-33.941125-33.941125 0-67.882251Z" p-id="5333"></path><path d="M334.08 435.84m48 0l160 0q48 0 48 48l0 0q0 48-48 48l-160 0q-48 0-48-48l0 0q0-48 48-48Z" p-id="5334"></path><path d="M493.44 691.2m0-48l0-160q0-48 48-48l0 0q48 0 48 48l0 160q0 48-48 48l0 0q-48 0-48-48Z" p-id="5335"></path></svg>