<svg fill="#fff" t="1677681129233" class="icon" viewBox="0 0 1024 1024" version="1.1" xmlns="http://www.w3.org/2000/svg" p-id="4916" width="200" height="200"><path d="M763.37440099 989.61136145c-12.56871953 0-25.13744054 0-37.70616008-6.28436052L512 882.77724023l-213.66824091 100.5497607c-31.42179956 12.56871953-69.12795966 12.56871953-94.26540019-6.2843605-25.13744054-18.85308003-43.99052059-50.27487962-37.70616007-87.98103968l31.42180103-238.80567998-157.10900079-169.67772033c-25.13744054-25.13744054-31.42179956-62.84360061-18.85308005-94.26540019s37.70616007-56.55924012 69.12795967-62.84360061l226.23696044-43.9905206 113.11848022-201.0995199c18.85308003-31.42179956 43.99052059-50.27487962 81.69668065-50.27487961s62.84360061 18.85308003 81.69668065 50.27487961l113.11848022 201.0995199 226.23696044 43.9905206c31.42179956 6.2843605 62.84360061 31.42179956 69.12795967 62.84360061 12.56871953 31.42179956 0 69.12795966-18.85308005 94.26540019L826.21800014 650.25592077l31.42180103 232.52131946c6.2843605 31.42179956-12.56871953 69.12795966-37.70616007 87.98104117-18.85308003 12.56871953-37.70616007 18.85308003-56.55924011 18.85308005z m-251.37440099-175.96208084h12.56871953l226.23696046 106.83411972c12.56871953 6.2843605 25.13744054 0 31.42180102 0 6.2843605-6.2843605 12.56871953-12.56871953 12.56871956-31.42179958l-31.42179958-245.09004048c0-6.2843605 0-18.85308003 6.28435903-25.13744056l169.67772033-182.24643985c12.56871953-12.56871953 6.2843605-25.13744054 6.28436051-31.42179957s-6.2843605-18.85308003-25.13744053-18.85308004l-245.0900405-50.27488109c-6.2843605 0-18.85308003-6.2843605-18.85308002-12.56871952l-119.40283927-213.66824094c-6.2843605-12.56871953-18.85308003-18.85308003-25.13744054-18.85308001s-18.85308003 0-25.13744054 18.85308001L367.45972019 323.46919964c-6.2843605 12.56871953-12.56871953 12.56871953-25.13744053 18.85308002l-245.09004048 43.99052059c-18.85308003 6.2843605-25.13744054 18.85308003-25.13744053 18.85308004 0 6.2843605-6.2843605 18.85308003 6.28436049 31.42179957l169.67772034 182.24643985c12.56871953 6.2843605 12.56871953 18.85308003 12.56871953 25.13744056L229.20379943 889.06160075c0 18.85308003 6.2843605 25.13744054 12.56871956 31.42179958 6.2843605 6.2843605 18.85308003 12.56871953 31.42180102 0l226.23696046-106.83411972c6.2843605 6.2843605 6.2843605 0 12.56871953 0z" p-id="4917"></path></svg>