<svg fill="#4943d8" t="1679106225012" class="icon" viewBox="0 0 1024 1024" version="1.1" xmlns="http://www.w3.org/2000/svg" p-id="5626" width="200" height="200"><path d="M800.56471703 740.13809778l-14.0659674-86.22838519L1005.8258963 429.1090963c10.1702163-10.41294222 13.65333333-25.64399408 9.02940445-39.45509927s-16.57818075-23.85995852-30.95969186-26.05662814l-301.53841778-46.06938074-135.19834074-288.0671289C540.76302222 15.83179852 527.0611437 7.13007408 512 7.13007408s-28.76302222 8.70172445-35.15885037 22.33078517l-135.19834074 288.0671289-301.53841778 46.06938074c-14.39364741 2.19666963-26.33576297 12.25765925-30.95969186 26.05662814s-1.14081185 29.03002075 9.02940445 39.45509927l219.32714667 224.80061629-51.85839407 317.88600889a38.83978903 38.83978903 0 0 0 15.95922962 37.9987437c6.67496297 4.70888297 14.51501037 7.08759703 22.36719408 7.08759704 6.44437333 0 12.92515555-1.60199111 18.78698667-4.84238222L512 863.18800592l95.47624297 52.7686163c18.77485037 10.37653333 42.40421925 3.56807111 52.78075258-15.20677925 10.37653333-18.77485037 3.56807111-42.40421925-15.20677925-52.7807526l-114.26322963-63.15728592a38.80095289 38.80095289 0 0 0-37.57397334 0L275.18445037 905.33736297l42.13722074-258.29679408a38.83736178 38.83736178 0 0 0-10.53430519-33.37481481L126.53909333 428.96346075l247.31344592-37.78029038a38.8179437 38.8179437 0 0 0 29.28488297-21.89387852l108.86257778-231.92462222 108.85044148 231.91248592a38.86527525 38.86527525 0 0 0 29.28488297 21.89387853l247.31344592 37.78029037-180.224 184.73870222a38.87377067 38.87377067 0 0 0-10.53430519 33.37481481l17.22140445 105.57364149c3.45884445 21.16570075 23.42305185 35.52293925 44.57661629 32.07623111 21.17783703-3.44670815 35.53507555-23.41091555 32.07623111-44.5766163zM955.27822222 900.36148148l50.20785778-50.20785778c15.17037037-15.17037037 15.17037037-39.75850667 0-54.91674073-15.17037037-15.17037037-39.75850667-15.17037037-54.91674075 0L900.36148148 845.44474075l-50.20785778-50.20785778c-15.17037037-15.17037037-39.75850667-15.17037037-54.91674073 0-15.17037037 15.17037037-15.17037037 39.75850667 0 54.91674073L845.44474075 900.36148148l-50.20785778 50.20785777c-15.17037037 15.17037037-15.17037037 39.75850667 0 54.91674075 7.58518518 7.58518518 17.52481185 11.37170963 27.46443851 11.37170963s19.87925333-3.78652445 27.46443852-11.37170963L900.36148148 955.27822222l50.20785777 50.20785778c7.58518518 7.58518518 17.52481185 11.37170963 27.46443853 11.37170963s19.87925333-3.78652445 27.46443852-11.37170963c15.17037037-15.17037037 15.17037037-39.75850667 0-54.91674075L955.27822222 900.36148148z" p-id="5627"></path></svg>