<svg fill="#fff" t="1677681525719" class="icon" viewBox="0 0 1131 1024" version="1.1" xmlns="http://www.w3.org/2000/svg" p-id="5712" width="200" height="200"><path d="M1171.30778667 431.63680107l1.97732586 1.56538346q-0.9749312-0.82388587-1.97732586-1.56538346zM-34.13333333 433.8887552l3.57017173-2.82867413a34.32857707 34.32857707 0 0 0-3.57017173 2.82867413z" fill="#515151" p-id="5713"></path><path d="M91.4406016 1027.9241856c-0.31582293 2.11464-0.64537707 4.2155488-0.9337376 6.34392107a31.66467947 31.66467947 0 0 0 0.9337376-6.34392107zM59.78965333 1058.13333333zM28.17989973 1024.09311573q0.34328533-2.37553707 0.71403414-4.75107413a31.5822912 31.5822912 0 0 0-0.71403414 4.75107413z" fill="#515151" p-id="5714"></path><path d="M1111.82322773 1016.7193376c0.3982112 2.4853888 0.7552288 4.98450987 1.1122464 7.48362987a32.7631936 32.7631936 0 0 0-1.1122464-7.48362987zM1048.2878976 1033.0460096c-0.27462827-1.96359467-0.5629888-3.91345813-0.86508053-5.8633216a32.7631936 32.7631936 0 0 0 0.86508053 5.8633216z" fill="#515151" p-id="5715"></path><path d="M1111.82322773 1016.7193376C1078.9501824 809.85533227 922.76888853 659.4412384 723.47090027 599.37996053c106.25381227-56.65588373 196.55170133-177.30023467 196.55170133-305.82642773C920.0226016 107.794736 756.83827733-34.13333333 570.5576864-34.13333333s-349.4649152 141.92806933-349.46491413 327.68686613c0 128.52619307 90.35281493 249.21173867 196.60662613 305.82642773C217.50886827 659.67467307 60.86070507 811.1323552 28.85274027 1019.3420416q-0.3707488 2.37553707-0.7140352 4.75107413c0 0.76896-0.09612053 1.5516512-0.09611947 2.33434347a31.69214187 31.69214187 0 0 0 31.5822912 31.69214293h0.19224a31.70587413 31.70587413 0 0 0 30.6897472-23.8103008c0.28836053-2.12837227 0.61791467-4.22928107 0.9337376-6.34392106 35.0426112-230.6880384 236.0295648-384.864544 479.1170848-384.864544 242.81289173 0 441.67147307 153.87441387 476.86513067 384.1093152 0.30209173 1.94986347 0.5904512 3.91345813 0.86508053 5.86332053a32.80438827 32.80438827 0 0 0 64.67503893-7.71706453c0.0137312-0.4119424-0.70030293-6.15168107-1.1397088-8.63706987z m-825.25899413-723.17953707c0-150.9221568 132.63189013-262.1330144 283.9934528-262.1330144s283.9934528 111.22458987 283.9934528 262.1330144-132.6456224 283.9934528-283.9934528 283.9934528-283.9934528-133.0575648-283.9934528-283.97972053z"  p-id="5716"></path></svg>