<svg fill="#B551EA" t="1678064610869" class="icon" viewBox="0 0 1024 1024" version="1.1" xmlns="http://www.w3.org/2000/svg" p-id="5264" width="200" height="200"><path d="M728.2688 573.18892999A306.85411555 306.85411555 0 0 0 817.83466667 355.65795555a306.27157333 306.27157333 0 0 0-89.56586667-217.57952A303.06759111 303.06759111 0 0 0 512 47.8814811a302.63068445 302.63068445 0 0 0-216.22025443 90.14840889A306.90266112 306.90266112 0 0 0 206.16533333 355.65795555a306.65993443 306.65993443 0 0 0 89.5173211 217.57952 301.95105223 301.95105223 0 0 0 175.44230002 87.4298789V776.05925888h-122.8193189a8.68958777 8.68958777 0 0 0-8.59249777 8.6895889v65.00200221c0 4.75742777 3.88361443 8.64104334 8.59249777 8.64104334h122.8193189v151.70370333c0 4.80597333 3.88361443 8.68958777 8.59249778 8.6895889h64.56509554c4.75742777 0 8.64104334-3.88361443 8.64104334-8.6895889v-151.70370333h122.77077334c4.75742777 0 8.64104334-3.88361443 8.64104334-8.64104334v-65.05054777a8.68958777 8.68958777 0 0 0-8.64104334-8.64104334h-122.77077334v-115.39190443a302.82486557 302.82486557 0 0 0 175.34520889-87.47842446zM512 581.00470556a221.94858667 221.94858667 0 0 1-158.40293888-66.02145223 224.57002667 224.57002667 0 0 1-65.536-159.37384334 224.76420779 224.76420779 0 0 1 65.536-159.37384221A221.31749888 221.31749888 0 0 1 512 130.21411555c59.9047589 0 116.02299221 23.44732445 158.40293888 66.02145223a224.5214811 224.5214811 0 0 1 65.58454557 159.37384221 224.76420779 224.76420779 0 0 1-65.536 159.42238891A221.94858667 221.94858667 0 0 1 512 581.05324999z" p-id="5265"></path></svg>